name rise31.4854peak64.571fall78.6902.mot
datacolumns 19
datarows 14
range 3.84832300000000 3.86998300000000
endheader
time	ground_force1_vx	ground_force1_vy	ground_force1_vz	ground_force1_px	ground_force1_py	ground_force1_pz	ground_force2_vx	ground_force2_vy	ground_force2_vz	ground_force2_px	ground_force2_py	ground_force2_pz	ground_torque1_x	ground_torque1_y	ground_torque1_z	ground_torque2_x	ground_torque2_y	ground_torque2_z	
3.84832300000000	-8.32888600000000	41.27082000000000	-13.96488400000000	0.29567300000000	0.00000000000000	0.06404400000000	-52.04149400000000	794.96723999999995	-43.54584700000000	0.09266900000000	0.00000000000000	-0.08816000000000	0.00000000000000	-9.12680400000000	0.00000000000000	0.00000000000000	-15.27134900000000	0.00000000000000	
3.84999000000000	-9.05871000000000	48.29169800000000	-15.73305800000000	0.30035900000000	0.00000000000000	0.06546000000000	-53.08219000000000	792.64638800000000	-43.17848600000000	0.09176400000000	0.00000000000000	-0.08807300000000	0.00000000000000	-10.37706000000000	0.00000000000000	0.00000000000000	-15.34887000000000	0.00000000000000	
3.85164900000000	-9.61141800000000	55.38294800000000	-17.35199900000000	0.30466900000000	0.00000000000000	0.06674600000000	-54.14472500000000	790.21264900000006	-42.79734900000000	0.09085900000000	0.00000000000000	-0.08798400000000	0.00000000000000	-11.54809100000000	0.00000000000000	0.00000000000000	-15.43154500000000	0.00000000000000	
3.85331600000000	-9.96455700000000	62.45296100000000	-18.78549900000000	0.30866000000000	0.00000000000000	0.06792100000000	-55.22772300000000	787.66158299999995	-42.40225300000000	0.08995500000000	0.00000000000000	-0.08789400000000	0.00000000000000	-12.61431300000000	0.00000000000000	0.00000000000000	-15.51913100000000	0.00000000000000	
3.85499200000000	-10.10554000000000	69.43347100000000	-20.00962800000000	0.31237700000000	0.00000000000000	0.06900200000000	-56.32967100000000	784.98866799999996	-41.99301500000000	0.08905200000000	0.00000000000000	-0.08780300000000	0.00000000000000	-13.55793900000000	0.00000000000000	0.00000000000000	-15.61135400000000	0.00000000000000	
3.85664900000000	-10.03141200000000	76.28158999999999	-21.01290800000000	0.31585900000000	0.00000000000000	0.07000000000000	-57.44892500000000	782.18931299999997	-41.56946000000000	0.08815200000000	0.00000000000000	-0.08771100000000	0.00000000000000	-14.36928100000000	0.00000000000000	0.00000000000000	-15.70791200000000	0.00000000000000	
3.85831800000000	-9.74787400000000	82.97941700000000	-21.79543600000000	0.31913500000000	0.00000000000000	0.07092600000000	-58.58370700000000	779.25887299999999	-41.13141800000000	0.08725600000000	0.00000000000000	-0.08761700000000	0.00000000000000	-15.04633100000000	0.00000000000000	0.00000000000000	-15.80847400000000	0.00000000000000	
3.85999000000000	-9.26775800000000	89.53165199999999	-22.36721300000000	0.32223200000000	0.00000000000000	0.07178800000000	-59.73210500000000	776.19266400000004	-40.67873000000000	0.08636300000000	0.00000000000000	-0.08752200000000	0.00000000000000	-15.59379000000000	0.00000000000000	0.00000000000000	-15.91268100000000	0.00000000000000	
3.86165400000000	-8.60918100000000	95.96175400000000	-22.74593900000000	0.32517100000000	0.00000000000000	0.07259500000000	-60.89208200000000	772.98598600000003	-40.21124800000000	0.08547600000000	0.00000000000000	-0.08742600000000	0.00000000000000	-16.02170800000000	0.00000000000000	0.00000000000000	-16.02014600000000	0.00000000000000	
3.86332300000000	-7.79358600000000	102.30722200000000	-22.95457500000000	0.32796700000000	0.00000000000000	0.07335100000000	-62.06147300000000	769.63413200000002	-39.72884000000000	0.08459400000000	0.00000000000000	-0.08732900000000	0.00000000000000	-16.34391100000000	0.00000000000000	0.00000000000000	-16.13045600000000	0.00000000000000	
3.86498900000000	-6.84384700000000	108.61453899999999	-23.01887900000000	0.33063700000000	0.00000000000000	0.07406300000000	-63.23799300000000	766.13241700000003	-39.23139000000000	0.08371900000000	0.00000000000000	-0.08722900000000	0.00000000000000	-16.57640000000000	0.00000000000000	0.00000000000000	-16.24317100000000	0.00000000000000	
3.86665800000000	-5.78258300000000	114.93424600000000	-22.96515600000000	0.33319300000000	0.00000000000000	0.07473500000000	-64.41923600000000	762.47618799999998	-38.71880100000000	0.08285100000000	0.00000000000000	-0.08712900000000	0.00000000000000	-16.73583600000000	0.00000000000000	0.00000000000000	-16.35782800000000	0.00000000000000	
3.86832500000000	-4.63077700000000	121.31651900000000	-22.81833800000000	0.33564300000000	0.00000000000000	0.07537000000000	-65.60268800000000	758.66085199999998	-38.19100000000000	0.08199100000000	0.00000000000000	-0.08702600000000	0.00000000000000	-16.83823300000000	0.00000000000000	0.00000000000000	-16.47394000000000	0.00000000000000	
3.86998300000000	-3.40675900000000	127.80751100000001	-22.60050600000000	0.33799700000000	0.00000000000000	0.07597300000000	-66.78572400000000	754.68189299999995	-37.64793800000000	0.08114100000000	0.00000000000000	-0.08692200000000	0.00000000000000	-16.89792000000000	0.00000000000000	0.00000000000000	-16.59099600000000	0.00000000000000	
